<svg width="305" height="108" viewBox="0 0 305 108" fill="none" xmlns="http://www.w3.org/2000/svg">
<path d="M11.64 42H21.912L28.032 20.232L34.128 42H44.4L55.704 2.4H45.408L38.784 29.232L31.488 2.4H24.576L17.28 29.232L10.656 2.4H0.36L11.64 42ZM68.6475 42.768C71.2875 42.768 73.6795 42.2 75.8235 41.064C77.9835 39.912 79.6395 38.336 80.7915 36.336L74.5035 33.192C73.6235 34.152 72.7755 34.832 71.9595 35.232C71.1595 35.632 70.2235 35.832 69.1515 35.832C67.4075 35.832 66.0235 35.392 64.9995 34.512C63.9915 33.616 63.4875 32.416 63.4875 30.912H81.1755C81.2235 30.384 81.2475 30.032 81.2475 29.856C81.2635 29.68 81.2715 29.488 81.2715 29.28C81.2715 26.784 80.7275 24.592 79.6395 22.704C78.5515 20.8 77.0395 19.32 75.1035 18.264C73.1835 17.192 70.9435 16.656 68.3835 16.656C65.7755 16.656 63.4155 17.232 61.3035 18.384C59.2075 19.536 57.5435 21.096 56.3115 23.064C55.0795 25.032 54.4635 27.24 54.4635 29.688C54.4635 32.168 55.0875 34.4 56.3355 36.384C57.5835 38.352 59.2715 39.912 61.3995 41.064C63.5435 42.2 65.9595 42.768 68.6475 42.768ZM63.7515 26.496C63.8315 25.344 64.2635 24.448 65.0475 23.808C65.8315 23.152 66.8795 22.824 68.1915 22.824C70.7835 22.824 72.2795 24.048 72.6795 26.496H63.7515ZM87.282 42H96.042V0.719999H87.282V42ZM115.654 42.768C117.254 42.768 118.766 42.544 120.19 42.096C121.614 41.648 122.766 41.104 123.646 40.464L120.742 34.56C120.326 34.864 119.79 35.12 119.134 35.328C118.494 35.52 117.798 35.616 117.046 35.616C115.206 35.616 113.734 35.04 112.63 33.888C111.542 32.72 110.998 31.328 110.998 29.712C110.998 28.784 111.214 27.872 111.646 26.976C112.094 26.064 112.766 25.312 113.662 24.72C114.558 24.112 115.67 23.808 116.998 23.808C118.518 23.808 119.766 24.16 120.742 24.864L123.646 18.96C122.798 18.304 121.638 17.76 120.166 17.328C118.71 16.88 117.19 16.656 115.606 16.656C113.622 16.656 111.79 17.016 110.11 17.736C108.43 18.44 106.966 19.408 105.718 20.64C104.47 21.872 103.494 23.272 102.79 24.84C102.102 26.408 101.758 28.04 101.758 29.736C101.758 31.528 102.126 33.216 102.862 34.8C103.598 36.368 104.606 37.752 105.886 38.952C107.166 40.152 108.646 41.088 110.326 41.76C112.006 42.432 113.782 42.768 115.654 42.768ZM141.41 42.768C144.178 42.768 146.674 42.216 148.898 41.112C151.122 39.992 152.882 38.456 154.178 36.504C155.474 34.536 156.122 32.272 156.122 29.712C156.122 27.152 155.474 24.896 154.178 22.944C152.882 20.976 151.122 19.44 148.898 18.336C146.674 17.216 144.178 16.656 141.41 16.656C138.642 16.656 136.146 17.216 133.922 18.336C131.698 19.44 129.938 20.976 128.642 22.944C127.346 24.896 126.698 27.152 126.698 29.712C126.698 32.272 127.346 34.536 128.642 36.504C129.938 38.456 131.698 39.992 133.922 41.112C136.146 42.216 138.642 42.768 141.41 42.768ZM141.41 35.328C139.874 35.328 138.562 34.808 137.474 33.768C136.402 32.712 135.866 31.36 135.866 29.712C135.866 28.048 136.402 26.696 137.474 25.656C138.562 24.616 139.874 24.096 141.41 24.096C142.946 24.096 144.25 24.616 145.322 25.656C146.41 26.696 146.954 28.048 146.954 29.712C146.954 31.36 146.41 32.712 145.322 33.768C144.25 34.808 142.946 35.328 141.41 35.328ZM161.813 42H170.573V27.672C170.573 26.472 170.941 25.496 171.677 24.744C172.429 23.992 173.413 23.616 174.629 23.616C175.861 23.616 176.813 24.016 177.485 24.816C178.173 25.6 178.517 26.64 178.517 27.936V42H187.277V27.456C187.277 26.336 187.645 25.416 188.381 24.696C189.117 23.976 190.093 23.616 191.309 23.616C192.509 23.616 193.461 24.008 194.165 24.792C194.885 25.576 195.245 26.648 195.245 28.008V42H204.005V25.632C204.005 23.824 203.605 22.248 202.805 20.904C202.005 19.56 200.909 18.52 199.517 17.784C198.141 17.032 196.557 16.656 194.765 16.656C193.101 16.656 191.589 17.024 190.229 17.76C188.885 18.496 187.573 19.624 186.293 21.144C185.605 19.784 184.493 18.696 182.957 17.88C181.437 17.064 179.757 16.656 177.917 16.656C176.621 16.656 175.397 16.912 174.245 17.424C173.109 17.936 171.885 18.768 170.573 19.92V17.424H161.813V42ZM223.569 42.768C226.209 42.768 228.601 42.2 230.745 41.064C232.905 39.912 234.561 38.336 235.713 36.336L229.425 33.192C228.545 34.152 227.697 34.832 226.881 35.232C226.081 35.632 225.145 35.832 224.073 35.832C222.329 35.832 220.945 35.392 219.921 34.512C218.913 33.616 218.409 32.416 218.409 30.912H236.097C236.145 30.384 236.169 30.032 236.169 29.856C236.185 29.68 236.193 29.488 236.193 29.28C236.193 26.784 235.649 24.592 234.561 22.704C233.473 20.8 231.961 19.32 230.025 18.264C228.105 17.192 225.865 16.656 223.305 16.656C220.697 16.656 218.337 17.232 216.225 18.384C214.129 19.536 212.465 21.096 211.233 23.064C210.001 25.032 209.385 27.24 209.385 29.688C209.385 32.168 210.009 34.4 211.257 36.384C212.505 38.352 214.193 39.912 216.321 41.064C218.465 42.2 220.881 42.768 223.569 42.768ZM218.673 26.496C218.753 25.344 219.185 24.448 219.969 23.808C220.753 23.152 221.801 22.824 223.113 22.824C225.705 22.824 227.201 24.048 227.601 26.496H218.673ZM258.717 42H267.981V10.536H277.269V2.4H249.429V10.536H258.717V42ZM290.285 42.768C293.053 42.768 295.549 42.216 297.773 41.112C299.997 39.992 301.757 38.456 303.053 36.504C304.349 34.536 304.997 32.272 304.997 29.712C304.997 27.152 304.349 24.896 303.053 22.944C301.757 20.976 299.997 19.44 297.773 18.336C295.549 17.216 293.053 16.656 290.285 16.656C287.517 16.656 285.021 17.216 282.797 18.336C280.573 19.44 278.813 20.976 277.517 22.944C276.221 24.896 275.573 27.152 275.573 29.712C275.573 32.272 276.221 34.536 277.517 36.504C278.813 38.456 280.573 39.992 282.797 41.112C285.021 42.216 287.517 42.768 290.285 42.768ZM290.285 35.328C288.749 35.328 287.437 34.808 286.349 33.768C285.277 32.712 284.741 31.36 284.741 29.712C284.741 28.048 285.277 26.696 286.349 25.656C287.437 24.616 288.749 24.096 290.285 24.096C291.821 24.096 293.125 24.616 294.197 25.656C295.285 26.696 295.829 28.048 295.829 29.712C295.829 31.36 295.285 32.712 294.197 33.768C293.125 34.808 291.821 35.328 290.285 35.328ZM5.04 107H27.768V98.888H14.28V67.4H5.04V107ZM44.9501 107.768C49.7181 107.768 53.1581 106.864 55.2701 105.056C57.3821 103.248 58.4381 100.312 58.4381 96.248V82.424H49.6781V94.088C49.6781 96.504 49.3181 98.208 48.5981 99.2C47.8941 100.176 46.6781 100.664 44.9501 100.664C43.2061 100.664 41.9821 100.176 41.2781 99.2C40.5741 98.208 40.2221 96.504 40.2221 94.088V82.424H31.4621V96.248C31.4621 100.312 32.5181 103.248 34.6301 105.056C36.7421 106.864 40.1821 107.768 44.9501 107.768ZM77.4041 107.768C79.0041 107.768 80.5161 107.544 81.9401 107.096C83.3641 106.648 84.5161 106.104 85.3961 105.464L82.4921 99.56C82.0761 99.864 81.5401 100.12 80.8841 100.328C80.2441 100.52 79.5481 100.616 78.7961 100.616C76.9561 100.616 75.4841 100.04 74.3801 98.888C73.2921 97.72 72.7481 96.328 72.7481 94.712C72.7481 93.784 72.9641 92.872 73.3961 91.976C73.8441 91.064 74.5161 90.312 75.4121 89.72C76.3081 89.112 77.4201 88.808 78.7481 88.808C80.2681 88.808 81.5161 89.16 82.4921 89.864L85.3961 83.96C84.5481 83.304 83.3881 82.76 81.9161 82.328C80.4601 81.88 78.9401 81.656 77.3561 81.656C75.3721 81.656 73.5401 82.016 71.8601 82.736C70.1801 83.44 68.7161 84.408 67.4681 85.64C66.2201 86.872 65.2441 88.272 64.5401 89.84C63.8521 91.408 63.5081 93.04 63.5081 94.736C63.5081 96.528 63.8761 98.216 64.6121 99.8C65.3481 101.368 66.3561 102.752 67.6361 103.952C68.9161 105.152 70.3961 106.088 72.0761 106.76C73.7561 107.432 75.5321 107.768 77.4041 107.768ZM90.7039 107H99.4639V97.976L108.92 107H120.152L107.312 94.664L119.624 82.424H108.296L99.4639 91.016V65.72H90.7039V107ZM123.47 107H132.23V92.984C132.23 91.656 132.646 90.576 133.478 89.744C134.326 88.896 135.454 88.472 136.862 88.472C138.254 88.472 139.358 88.904 140.174 89.768C140.99 90.616 141.398 91.776 141.398 93.248V107H150.158V91.376C150.158 89.488 149.734 87.816 148.886 86.36C148.054 84.888 146.902 83.736 145.43 82.904C143.974 82.072 142.31 81.656 140.438 81.656C138.87 81.656 137.366 81.952 135.926 82.544C134.502 83.136 133.27 83.928 132.23 84.92V82.424H123.47V107ZM170.191 107.768C172.959 107.768 175.455 107.216 177.679 106.112C179.903 104.992 181.663 103.456 182.959 101.504C184.255 99.536 184.903 97.272 184.903 94.712C184.903 92.152 184.255 89.896 182.959 87.944C181.663 85.976 179.903 84.44 177.679 83.336C175.455 82.216 172.959 81.656 170.191 81.656C167.423 81.656 164.927 82.216 162.703 83.336C160.479 84.44 158.719 85.976 157.423 87.944C156.127 89.896 155.479 92.152 155.479 94.712C155.479 97.272 156.127 99.536 157.423 101.504C158.719 103.456 160.479 104.992 162.703 106.112C164.927 107.216 167.423 107.768 170.191 107.768ZM170.191 100.328C168.655 100.328 167.343 99.808 166.255 98.768C165.183 97.712 164.647 96.36 164.647 94.712C164.647 93.048 165.183 91.696 166.255 90.656C167.343 89.616 168.655 89.096 170.191 89.096C171.727 89.096 173.031 89.616 174.103 90.656C175.191 91.696 175.735 93.048 175.735 94.712C175.735 96.36 175.191 97.712 174.103 98.768C173.031 99.808 171.727 100.328 170.191 100.328ZM198.686 107H204.59L210.158 94.592L215.75 107H221.63L234.902 82.424H224.87L218.966 95.456L213.158 82.424H207.182L201.35 95.456L195.446 82.424H185.438L198.686 107Z" fill="black"/>
</svg>
